<svg width="23" height="20" viewBox="0 0 23 20" fill="none" xmlns="http://www.w3.org/2000/svg">
<path d="M11.4197 0C4.73869 -4.66657e-06 -0.160621 4.34321 -0.160621 8.84598C-0.160621 9.95841 -0.160647 14.7797 -0.160621 15.9599C-0.160621 18.0013 -0.160675 21.9842 -0.160621 22.6123C1.36419 23.6071 9.55574 23.5545 11.8279 23.5545C13.7691 23.5545 22.9999 24.4967 22.9999 22.6123C22.9999 20.4139 22.9999 18.5295 22.9999 16.6713C22.9999 14.8132 22.9999 10.0595 22.9999 8.84598C22.9999 4.34321 17.7525 9.08996e-06 11.4197 0ZM11.0114 17.692C10.336 17.692 9.78656 17.2342 9.78656 16.6713C9.78656 16.1085 10.336 15.6506 11.0114 15.6506C11.6868 15.6506 12.2362 16.1085 12.2362 16.6713C12.2362 17.2342 11.6868 17.692 11.0114 17.692ZM12.2362 13.5415V14.6299C12.2362 14.818 12.0536 14.9702 11.8279 14.9702H10.1948C9.96917 14.9702 9.78656 14.818 9.78656 14.6299V12.9288C9.78656 12.1785 10.5194 11.5679 11.4197 11.5679C12.32 11.5679 13.0528 10.9572 13.0528 10.2069C13.0528 9.45667 12.32 8.84598 11.4197 8.84598C10.5194 8.84598 9.78656 9.45667 9.78656 10.2069V10.5472C9.78656 10.7352 9.60394 10.8874 9.37827 10.8874H7.74518C7.5195 10.8874 7.33689 10.7352 7.33689 10.5472V10.2069C7.33689 8.33097 9.16855 6.80459 11.4197 6.80459C13.6708 6.80459 15.5025 8.331 15.5025 10.2069C15.5025 11.8396 14.1221 13.2232 12.2362 13.5415Z" fill="#4B7384"/>
</svg>
